<?xml version="1.0" encoding="iso-8859-1"?>
<!-- Generator: Adobe Illustrator 19.0.0, SVG Export Plug-In . SVG Version: 6.00 Build 0)  -->
<svg version="1.1" id="Capa_1" xmlns="http://www.w3.org/2000/svg" xmlns:xlink="http://www.w3.org/1999/xlink" x="0px" y="0px"
	 viewBox="0 0 512 512" style="enable-background:new 0 0 512 512;" xml:space="preserve">
<path style="fill:#72CAAF;" d="M24,96.64h400c8.84,0,16,7.16,16,16V336c0,8.84-7.16,16-16,16H24c-8.84,0-16-7.16-16-16V112.64
	C8,103.8,15.16,96.64,24,96.64z"/>
<g>
	<path style="fill:#97E0BB;" d="M472,160v224H72v16c0,8.84,7.16,16,16,16h400c8.84,0,16-7.16,16-16V176c0-8.84-7.16-16-16-16H472z"
		/>
	<path style="fill:#97E0BB;" d="M440,128v224H40v16c0,8.84,7.16,16,16,16h400c8.84,0,16-7.16,16-16V144c0-8.84-7.16-16-16-16H440z"
		/>
</g>
<g>
	<circle style="fill:#FADB6F;" cx="80" cy="232" r="24"/>
	<circle style="fill:#FADB6F;" cx="368" cy="232" r="24"/>
</g>
<ellipse style="fill:#BBDEF9;" cx="224" cy="224" rx="64" ry="80"/>
<g>
	<path style="fill:#DEF0FF;" d="M224,304c35.36,0,64-35.84,64-80c0.064-14.888-3.392-29.576-10.08-42.88l-88,110.8
		C199.576,299.696,211.6,303.96,224,304z"/>
	<path style="fill:#DEF0FF;" d="M177.04,278.24l89.84-113.52c-4.16-4.744-8.984-8.872-14.32-12.24l-85.44,108
		C169.68,266.784,173.016,272.752,177.04,278.24z"/>
	<path style="fill:#DEF0FF;" d="M162.56,246.08l78.48-99.12c-2.144-0.728-4.336-1.312-6.56-1.76l-73.44,92.64
		C161.44,240.64,161.92,243.36,162.56,246.08z"/>
</g>
<path style="fill:#97E0BB;" d="M16,96h408c8.84,0,16,7.16,16,16l0,0c0,13.256-10.744,24-24,24H24c-13.256,0-24-10.744-24-24l0,0
	C0,103.16,7.16,96,16,96z"/>
<g>
	<path style="fill:#8D6C9F;" d="M488,152h-8v-8c0-13.256-10.744-24-24-24h-8v-8c0-13.256-10.744-24-24-24H24
		C10.744,88,0,98.744,0,112v224c0,13.256,10.744,24,24,24h8v8c0,13.256,10.744,24,24,24h8v8c0,13.256,10.744,24,24,24h400
		c13.256,0,24-10.744,24-24V176C512,162.744,501.256,152,488,152z M16,336V112c0-4.416,3.584-8,8-8h400c4.416,0,8,3.584,8,8v224
		c0,4.416-3.584,8-8,8H24C19.584,344,16,340.416,16,336z M48,368v-8h376c13.256,0,24-10.744,24-24V136h8c4.416,0,8,3.584,8,8v224
		c0,4.416-3.584,8-8,8H56C51.584,376,48,372.416,48,368z M496,400c0,4.416-3.584,8-8,8H88c-4.416,0-8-3.584-8-8v-8h376
		c13.256,0,24-10.744,24-24V168h8c4.416,0,8,3.584,8,8V400z"/>
	<path style="fill:#8D6C9F;" d="M120,120c-4.416,0-8,3.584-8,8v16c0,4.416,3.584,8,8,8s8-3.584,8-8v-16
		C128,123.584,124.416,120,120,120z"/>
	<path style="fill:#8D6C9F;" d="M160,152c4.416,0,8-3.584,8-8v-16c0-4.416-3.584-8-8-8s-8,3.584-8,8v16
		C152,148.416,155.584,152,160,152z"/>
	<path style="fill:#8D6C9F;" d="M288,120c-4.416,0-8,3.584-8,8v16c0,4.416,3.584,8,8,8s8-3.584,8-8v-16
		C296,123.584,292.416,120,288,120z"/>
	<path style="fill:#8D6C9F;" d="M328,152c4.416,0,8-3.584,8-8v-16c0-4.416-3.584-8-8-8s-8,3.584-8,8v16
		C320,148.416,323.584,152,328,152z"/>
	<path style="fill:#8D6C9F;" d="M120,296c-4.416,0-8,3.584-8,8v16c0,4.416,3.584,8,8,8s8-3.584,8-8v-16
		C128,299.584,124.416,296,120,296z"/>
	<path style="fill:#8D6C9F;" d="M160,296c-4.416,0-8,3.584-8,8v16c0,4.416,3.584,8,8,8s8-3.584,8-8v-16
		C168,299.584,164.416,296,160,296z"/>
	<path style="fill:#8D6C9F;" d="M288,296c-4.416,0-8,3.584-8,8v16c0,4.416,3.584,8,8,8s8-3.584,8-8v-16
		C296,299.584,292.416,296,288,296z"/>
	<path style="fill:#8D6C9F;" d="M328,296c-4.416,0-8,3.584-8,8v16c0,4.416,3.584,8,8,8s8-3.584,8-8v-16
		C336,299.584,332.416,296,328,296z"/>
	<path style="fill:#8D6C9F;" d="M40,144h40c4.416,0,8-3.584,8-8s-3.584-8-8-8H40c-4.416,0-8,3.584-8,8S35.584,144,40,144z"/>
	<path style="fill:#8D6C9F;" d="M80,304H40c-4.416,0-8,3.584-8,8s3.584,8,8,8h40c4.416,0,8-3.584,8-8S84.416,304,80,304z"/>
	<path style="fill:#8D6C9F;" d="M408,304h-40c-4.416,0-8,3.584-8,8s3.584,8,8,8h40c4.416,0,8-3.584,8-8S412.416,304,408,304z"/>
	<path style="fill:#8D6C9F;" d="M408,128h-40c-4.416,0-8,3.584-8,8s3.584,8,8,8h40c4.416,0,8-3.584,8-8S412.416,128,408,128z"/>
	<path style="fill:#8D6C9F;" d="M256,145.12c0.024-0.376,0.024-0.744,0-1.12v-16c0-4.416-3.584-8-8-8s-8,3.584-8,8v10.24
		c-10.456-3.024-21.544-3.024-32,0V128c0-4.416-3.584-8-8-8s-8,3.584-8,8v16c-0.024,0.376-0.024,0.744,0,1.12
		c-26.008,17.664-41.112,47.456-40,78.88c-1.112,31.424,13.992,61.216,40,78.88c-0.024,0.376-0.024,0.744,0,1.12v16
		c0,4.416,3.584,8,8,8s8-3.584,8-8v-10.24c10.456,3.024,21.544,3.024,32,0V320c0,4.416,3.584,8,8,8s8-3.584,8-8v-16
		c0.024-0.376,0.024-0.744,0-1.12c26.008-17.664,41.112-47.456,40-78.88C297.112,192.576,282.008,162.784,256,145.12z M224,297.12
		c-31.44,0-57.04-32.88-57.04-73.36s25.6-73.36,57.04-73.36s57.04,32.88,57.04,73.36s-25.6,73.6-57.04,73.6V297.12z"/>
	<path style="fill:#8D6C9F;" d="M400,232c0-17.672-14.328-32-32-32s-32,14.328-32,32s14.328,32,32,32S400,249.672,400,232z M350,232
		c0-9.944,8.056-18,18-18s18,8.056,18,18s-8.056,18-18,18S350,241.944,350,232L350,232z"/>
	<path style="fill:#8D6C9F;" d="M80,200c-17.672,0-32,14.328-32,32s14.328,32,32,32s32-14.328,32-32S97.672,200,80,200z M80,250
		c-9.944,0-18-8.056-18-18s8.056-18,18-18s18,8.056,18,18S89.944,250,80,250L80,250z"/>
</g>
<g>
</g>
<g>
</g>
<g>
</g>
<g>
</g>
<g>
</g>
<g>
</g>
<g>
</g>
<g>
</g>
<g>
</g>
<g>
</g>
<g>
</g>
<g>
</g>
<g>
</g>
<g>
</g>
<g>
</g>
</svg>
